<svg xmlns="http://www.w3.org/2000/svg" fill="none" viewBox="0 0 5634 5419" id="bg"><path d="M1773.31 3749.79c-117.99 49.42-162.8 170.55-85.69 239.7 158.66 142.3 811.81 72.01 842.54-24.45 30.28-95.03-510.66-318.39-756.85-215.25z" stroke="#e07f14" stroke-width="10" stroke-miterlimit="10"/><path d="M2065.65 3433.29c269.5-94.43 722.02 577.88 535.23 736.6-114.84 97.6-392.85 85.41-619.57 53.33-212.83-30.1-516.95-153.21-591.97-357.66-39.73-108.54-15.88-263.18 68.26-317.33 65.11-41.9 153.02-23.05 172.42-30.02 92.45 38.36 106.01 53.27 179.67 62.26 96.28 11.77 181.85-121.22 255.96-147.18z" stroke="#e07f14" stroke-width="10" stroke-miterlimit="10"/><path d="M2339.09 3102.62c313 49.99 653.13 1031.97 313.6 1257.96-216.23 143.93-593.21 80.37-855.96 4.28-241.37-69.89-643.28-303.13-724.59-637.4-47.27-194.23 10.17-467.46 174.73-546.49 131.18-62.98 300.21-8.83 329.97-4.66 175.9 94.66 190.13 142.82 321.1 175.23 173.43 42.88 310.34-269.91 441.15-248.92z" stroke="#e07f14" stroke-width="10" stroke-miterlimit="10"/><path d="M2592.71 2774.15c345.59 92.14 584.24 1485.26 91.97 1779.28-317.71 189.75-793.76 75.92-1092.36-44.75-270.13-109.14-768.143-452.58-857.196-917.15-53.722-280.17 35.93-671.4 281.176-775.65 197.07-83.8 448.75 2.2 487.48 20.71 270.75 129.47 274.18 232.36 462.68 288.2 250.39 74.37 445.26-398.8 626.25-350.64z" stroke="#e07f14" stroke-width="10" stroke-miterlimit="10"/><path d="M2831.08 2460.62c382.71 132.93 514.72 1937.15-129.67 2300.64-419.61 234.58-994.54 71.75-1328.73-93.78-299.2-148.15-892.689-601.75-989.938-1196.94-59.777-365.86 61.691-875.22 387.655-1004.87 263.073-104.54 595.403 18.08 645.013 46.05 349.01 196.74 358.04 322.41 604 401.27 327.42 105.89 582.58-531.92 811.67-452.37z" stroke="#e07f14" stroke-width="10" stroke-miterlimit="10"/><path d="M513.779 2119.64c328.962-125.25 741.751 33.81 802.551 71.4 426.33 263.58 442.1 411.51 745.44 514.13 404.5 136.85 721.47-667.22 996.77-554.11 422.87 173.74 446.6 2391.38-351.3 2821.99-520.63 280.97-1195.55 67.78-1565.13-142.82-328.215-187-1016.757-750.77-1122.431-1476.69-65.69-451.51 87.367-1079.07 494.1-1233.9zM4073.47 1891.14c-129.58-1.09-284.98-225.85-168.77-263.38 67.12-21.71 244.83 12.62 314.63 73.72 98.3 85.97-56.69 190.43-145.86 189.66z" stroke="#e07f14" stroke-width="10" stroke-miterlimit="10"/><path d="M3721.32 1659.23c12.68-30.16 72.06-43.55 126.23-80.29 109.91-74.54 125.67-109.96 203.73-154.92 30.44-17.57 71.4-40.64 111.38-30.08 61.24 16.2 76.52 86.29 154.23 209.74 100.76 160.41 138.92 201.88 110.13 286.88-6.71 19.77-15.39 83.78-63.92 122.82-67.2 53.99-145.97 12.29-244.45 48.02-118.27 42.84-176.9 119.1-228.23 85.4-36.15-23.74-37.5-88.74-64.57-201.94-20.62-86.23-33.59-142.81-58.67-188.97-30.07-54.95-59.97-63.12-45.86-96.66z" stroke="#e07f14" stroke-width="10" stroke-miterlimit="10"/><path d="M3523.25 1722.1c2.2-53.47 86.17-79.35 155.37-156.61 141.92-158.49 76.17-271.74 189.93-387.54 48.26-49.15 124.01-96.77 199.92-87.54 107.73 13.11 143.92 124.42 309.77 350.09 216.83 295.05 309.2 352.84 288.95 510.07-4.14 32.05-8.17 155.1-92.91 229.16-113.01 98.77-248.48 8.91-425.41 83.15-197.7 82.83-271.58 259.92-338.24 223.27-46.3-25.45-28.56-127.93-64.15-327.81-25.19-142.07-40.76-225.1-91.11-293.11-63.55-85.77-134.49-85.06-132.12-143.13z" stroke="#e07f14" stroke-width="10" stroke-miterlimit="10"/><path d="M3324.98 1784.28c-8.57-76.63 100.16-115.16 184.5-232.96 173.65-242.49 23.94-432.03 176.14-620.148 65.14-80.49 176.87-152.496 288.46-144.984 154.65 10.396 211.8 162.064 465.54 490.452 333.59 429.07 477.25 504.61 467.82 733.26-1.85 44.58-1 226.36-121.9 335.58-158.85 143.47-351.29 5.29-606.34 118.25-277.32 122.82-366.2 400.65-448.4 361.18-56.41-27.31-20.28-167.15-63.72-453.72-29.99-197.91-48.07-306.99-123.58-397.25-97.34-116.31-209.35-107.11-218.52-189.66z" stroke="#e07f14" stroke-width="10" stroke-miterlimit="10"/><path d="M3126.25 1846.29c-19.22-99.71 113.96-151.04 213.64-309.28 205.01-326.64-28.99-591.728 162.37-852.763 81.79-111.68 229.8-208.107 377-202.452 201.69 7.769 278.89 200.31 621.16 630.835 449.29 563.83 644.82 656.94 646.56 956.45.34 57.13 6 297.45-150.91 441.98-204.9 188-453.95 1.57-787.28 153.38-357.01 162.64-460.88 541.46-558.28 499.08-66.54-29.08-11.99-206.4-63.29-579.63-34.87-253.77-55.35-388.76-156.02-501.38-131.21-146.7-284.27-128.99-304.95-236.22z" stroke="#e07f14" stroke-width="10" stroke-miterlimit="10"/><path d="M2927.16 1908.27c32.19 131.96 226.23 105.68 391.28 282.77 125.87 135.02 148.74 295.86 188.5 605.53 59.03 459.86-13.85 674.68 62.83 705.5 112.73 45.33 231.57-434.52 668.32-636.95 411.45-190.68 717.62 44.39 968.21-188.51 193.19-179.57 182.45-478.45 179.93-548.4-13.31-370.29-260.38-481.06-825.4-1179.643-430.84-532.666-528-766.023-776.85-771.193-182.79-3.799-367.15 117.107-465.54 259.921-230.4 334.183 88.34 674.965-148.52 1085.385-114.78 198.88-272.72 262.83-242.76 385.59zM4573.82 4032.19c-33.81-17.13-104.81 15.88-111.1 67.33-7.11 58.35 73.23 106.62 108.53 91.62 41.76-17.76 47.44-136.27 2.57-158.95z" stroke="#e07f14" stroke-width="10" stroke-miterlimit="10"/><path d="M4669.1 4342.24c57.64-53.9 82.83-152.81 111.65-322.36 28.56-168.12 24.07-288.48-1.03-297.22-13.68-4.71-52.44 32.16-85.68 59.18-62.24 50.44-168.77 44.84-196.07 50.3-99.97 19.99-129.33 57.13-171.11 128.25-19.34 32.84-64.43 105.68-84.28 191.37-30.28 129.76-165.97 169.74-149.43 221.76 13.91 43.41 148.34 53.95 235.51 55.18 124.92 1.77 251.33-3.23 340.44-86.46z" stroke="#e07f14" stroke-width="10" stroke-miterlimit="10"/><path d="M4769.01 4487.14c94.73-96.31 132.01-257.95 189.41-560.23 58.32-303.73 57.95-512.07 29.22-519.84-21.56-5.94-91.39 69.15-150.74 122.82-111.88 101.6-312.14 84.89-353.41 91.4-188.22 29.08-234.6 98.74-307.54 230.42-30.39 54.84-113.76 188.51-151.75 346.38-58.46 241.84-335.64 305.16-312.71 394.82 19.17 74.66 276.21 86.11 437.95 79.97 228.37-8.88 459.49-22.93 619.57-185.74z" stroke="#e07f14" stroke-width="10" stroke-miterlimit="10"/><path d="M4868.37 4631.1c131.92-138.7 180.85-363.18 267.16-798.1 87.65-439.44 91.73-735.26 59.46-742.63-29.56-6.86-130.41 106.25-215.69 186.71-161.22 153.01-455.49 124.88-510.75 132.25-276.41 36.9-340.07 140.1-443.98 332.61-41.47 76.8-163.05 271.35-219.23 501.3-86.57 353.95-505.27 440.55-475.99 567.89 24.45 105.91 404.16 118.73 640.42 104.71 331.76-18.71 667.92-42.19 898.6-284.74z" stroke="#e07f14" stroke-width="10" stroke-miterlimit="10"/><path d="M4967.42 4774.97c169.19-181.09 229.71-468.43 344.93-1036 117.1-575.08 125.66-958.31 89.73-965.42-37.58-7.51-169.5 143.16-280.66 250.47-210.89 204.08-598.8 164.8-668.06 173.23-364.61 44.24-446.04 181.23-580.44 434.78-52.73 98.71-212.35 354.18-286.67 656.26-114.75 466.03-674.97 575.93-639.27 740.94 29.67 137.1 532.06 150.78 842.85 129.48 435.01-29.34 876.42-61.36 1177.59-383.74z" stroke="#e07f14" stroke-width="10" stroke-miterlimit="10"/><path d="M4438.02 2985.09c-452.77 51.41-551.22 222.78-716.87 536.97-63.7 120.8-261.68 437.01-354.16 811.18-142.8 578.17-844.62 711.36-802.55 914.01 34.96 168.52 659.98 182.8 1045.32 154.24 538.42-39.99 1084.99-80.49 1456.59-482.71 206.47-223.5 278.56-573.63 422.7-1273.9 146.32-710.75 159.37-1181.29 119.96-1188.2-45.7-8-208.5 179.94-345.59 314.19-260.59 255.12-742.12 204.76-825.4 214.22zM756.545 1611.22c51.409 197.08 420.415 104.51 859.675 548.4 157.4 159.07 262.93 325.45 471.25 351.33 21.02 2.59 229.72 25.42 377-108.54 185.31-168.52 72.21-402.31 288.47-728.35 79.65-120.11 92.91-85.23 151.37-179.95 249.51-404.3-131.04-814.747 88.54-1225.335 101.07-189 251.33-232.386 237.05-257.064C3168.27-94.171 617.626 1080.15 756.545 1611.22z" stroke="#e07f14" stroke-width="10" stroke-miterlimit="10"/><path d="M2144.59 2241.51c12.63-1.71 150.23 8.57 244.63-86.14 119.35-119.59 34.27-284.26 171.02-506.56 50.32-81.86 57.32-59.67 93.14-124.42 152.79-276.32-121.45-554.287 12.85-824.776 62.15-125.219 160.25-153.924 145.66-166.149-66.01-55.754-1749.57 767.905-1617.34 1126.315 49.58 134.41 320.25 86.71 629.96 376.22 112.62 105.2 188.88 223.31 320.08 205.51z" stroke="#e07f14" stroke-width="10" stroke-miterlimit="10"/><path d="M2201.72 1972.05c3.59-9.05 70.88-8.85 112.24-63.72 53.69-71.18-3.48-166.01 53.58-284.74 20.93-43.59 21.79-34.28 34.93-68.92 56.41-149.01-112.1-293.66-62.83-424.24 23.04-61.47 65.89-71.95 54.46-75.24-83.51 11.85-885.38 468.2-761.68 653.14 48.29 72.27 221.17 68.81 400.25 204.06 68.06 51.41 112.61 89.05 169.05 59.66z" stroke="#e07f14" stroke-width="10" stroke-miterlimit="10"/><path d="M2258.84 1702.62c-44.33-129.53-218.83-173.57-282.75-125.67-94.25 70.72-13.86 162.8 94.25 179.94 80.8 12.71 239.22 93.97 188.5-54.27z" stroke="#e07f14" stroke-width="10" stroke-miterlimit="10"/></svg>